<mxfile host="app.diagrams.net" modified="2020-07-19T16:28:13.233Z" agent="5.0 (Windows NT 10.0; Win64; x64) AppleWebKit/537.36 (KHTML, like Gecko) Chrome/83.0.4103.116 Safari/537.36" etag="OdMiYokvBKXtvvsBo0tP" version="13.4.6" type="github">
  <diagram id="fRb64ITn-hyFE03eq-Tl" name="Page-1">
    <mxGraphModel dx="576" dy="299" grid="1" gridSize="10" guides="1" tooltips="1" connect="1" arrows="1" fold="1" page="1" pageScale="1" pageWidth="850" pageHeight="1100" math="0" shadow="0">
      <root>
        <mxCell id="0" />
        <mxCell id="1" parent="0" />
        <mxCell id="ptp_p24TcaEws-BEJlRB-4" value="&lt;font style=&quot;font-size: 11px&quot;&gt;Install&amp;nbsp;&lt;span style=&quot;color: rgb(50 , 50 , 50)&quot;&gt;Analytics Engine powered by Apache Spark service&lt;/span&gt;&lt;/font&gt;&lt;br&gt;" style="edgeStyle=orthogonalEdgeStyle;rounded=0;orthogonalLoop=1;jettySize=auto;html=1;entryX=0.503;entryY=0.078;entryDx=0;entryDy=0;entryPerimeter=0;align=left;" edge="1" parent="1" source="ptp_p24TcaEws-BEJlRB-1" target="ptp_p24TcaEws-BEJlRB-3">
          <mxGeometry x="-0.7212" y="1" relative="1" as="geometry">
            <mxPoint x="-8" as="offset" />
          </mxGeometry>
        </mxCell>
        <mxCell id="ptp_p24TcaEws-BEJlRB-1" value="Administrator" style="shape=umlActor;verticalLabelPosition=bottom;verticalAlign=top;html=1;outlineConnect=0;" vertex="1" parent="1">
          <mxGeometry x="40" y="91" width="30" height="60" as="geometry" />
        </mxCell>
        <mxCell id="ptp_p24TcaEws-BEJlRB-2" value="Spark" style="shape=umlLifeline;perimeter=lifelinePerimeter;whiteSpace=wrap;html=1;container=1;collapsible=0;recursiveResize=0;outlineConnect=0;fillColor=#ffe6cc;strokeColor=#d79b00;" vertex="1" parent="1">
          <mxGeometry x="600" y="40" width="100" height="1040" as="geometry" />
        </mxCell>
        <mxCell id="ptp_p24TcaEws-BEJlRB-3" value="CP4D cluster" style="shape=umlLifeline;perimeter=lifelinePerimeter;whiteSpace=wrap;html=1;container=1;collapsible=0;recursiveResize=0;outlineConnect=0;fillColor=#ffe6cc;strokeColor=#d79b00;" vertex="1" parent="1">
          <mxGeometry x="450" y="40" width="100" height="1040" as="geometry" />
        </mxCell>
      </root>
    </mxGraphModel>
  </diagram>
</mxfile>
